<svg width="174" height="92" viewBox="0 0 174 92" fill="none" xmlns="http://www.w3.org/2000/svg">
<path d="M39.3334 7.27325V-6.10352e-05L0 22.8547V68.5716L39.3334 91.4263V84.153L6.25725 64.9312V26.4876L39.3334 7.27325Z" fill="url(#paint0_linear_11116_190)"/>
<path d="M39.3334 7.27325L72.4096 26.495V64.9386L39.3334 84.1604V91.4337L78.6669 68.579V22.8547L39.3334 -6.10352e-05V7.27325Z" fill="url(#paint1_linear_11116_190)"/>
<path d="M99.9114 24.2159C96.1393 24.2159 93.0773 27.3053 93.0773 31.0946C93.0773 34.8839 96.1467 37.9734 99.9114 37.9734C102.005 37.9734 103.876 37.0205 105.133 35.5241V36.7822C105.133 37.2289 105.496 37.5937 105.939 37.5937C106.383 37.5937 106.746 37.2289 106.746 36.7822V31.1467C106.746 31.1467 106.746 31.1318 106.746 31.1244C106.746 31.1095 106.746 31.0946 106.746 31.0797C106.746 27.283 103.676 24.201 99.9114 24.201V24.2159ZM99.9114 36.3505C97.0343 36.3505 94.6897 33.998 94.6897 31.0946C94.6897 28.1912 97.0269 25.8462 99.9114 25.8462C102.796 25.8462 105.133 28.1987 105.133 31.0946C105.133 33.9905 102.796 36.3505 99.9114 36.3505Z" fill="#F8F8F8"/>
<path d="M150.79 24.2159C147.018 24.2159 143.956 27.3054 143.956 31.0946C143.956 34.8839 147.026 37.9734 150.79 37.9734C154.555 37.9734 157.625 34.8839 157.625 31.0946C157.625 27.3054 154.555 24.2159 150.79 24.2159ZM150.79 36.3505C147.913 36.3505 145.569 33.998 145.569 31.0946C145.569 28.1913 147.906 25.8462 150.79 25.8462C153.675 25.8462 156.012 28.1987 156.012 31.0946C156.012 33.9905 153.675 36.3505 150.79 36.3505Z" fill="#F8F8F8"/>
<path d="M124.519 25.0868C124.238 24.7369 123.727 24.6848 123.38 24.9677L117.189 30.0226L110.998 24.9677C110.651 24.6848 110.14 24.7369 109.859 25.0868C109.578 25.4367 109.63 25.9504 109.978 26.2333L115.902 31.0722L109.978 35.9112C109.63 36.1941 109.578 36.7078 109.859 37.0577C110.022 37.2587 110.251 37.3554 110.488 37.3554C110.666 37.3554 110.851 37.2959 110.998 37.1768L117.189 32.1219L123.38 37.1768C123.528 37.2959 123.713 37.3554 123.89 37.3554C124.127 37.3554 124.356 37.2512 124.519 37.0577C124.8 36.7078 124.748 36.1941 124.401 35.9112L118.476 31.0722L124.401 26.2333C124.748 25.9504 124.8 25.4367 124.519 25.0868Z" fill="#F8F8F8"/>
<path d="M141.878 25.0868C141.597 24.7369 141.087 24.6848 140.739 24.9677L134.548 30.0226L128.358 24.9677C128.01 24.6848 127.5 24.7369 127.219 25.0868C126.937 25.4367 126.989 25.9504 127.337 26.2333L133.261 31.0722L127.337 35.9112C126.989 36.1941 126.937 36.7078 127.219 37.0577C127.381 37.2587 127.611 37.3554 127.847 37.3554C128.025 37.3554 128.21 37.2959 128.358 37.1768L134.548 32.1219L140.739 37.1768C140.887 37.2959 141.072 37.3554 141.249 37.3554C141.486 37.3554 141.715 37.2512 141.878 37.0577C142.159 36.7078 142.107 36.1941 141.76 35.9112L135.835 31.0722L141.76 26.2333C142.107 25.9504 142.159 25.4367 141.878 25.0868Z" fill="#F8F8F8"/>
<path d="M167.047 24.469C163.275 24.469 160.213 27.5808 160.213 31.4147V36.7897C160.213 37.2363 160.576 37.6011 161.02 37.6011C161.463 37.6011 161.826 37.2363 161.826 36.7897V31.4147C161.826 28.4816 164.17 26.0993 167.047 26.0993C169.925 26.0993 172.269 28.4816 172.269 31.4147V36.7897C172.269 37.2363 172.632 37.6011 173.075 37.6011C173.519 37.6011 173.882 37.2363 173.882 36.7897V31.4147C173.882 27.5882 170.812 24.469 167.047 24.469Z" fill="#F8F8F8"/>
<path d="M105.311 43.1845C98.4988 43.1845 92.9589 48.7605 92.9589 55.6169C92.9589 62.4733 98.4988 68.0493 105.311 68.0493C112.123 68.0493 117.663 62.4733 117.663 55.6169C117.663 48.7605 112.123 43.1845 105.311 43.1845ZM105.311 65.6C99.8375 65.6 95.3849 61.1184 95.3849 55.6095C95.3849 50.1005 99.8375 45.6263 105.311 45.6263C110.784 45.6263 115.237 50.108 115.237 55.6095C115.237 61.111 110.784 65.6 105.311 65.6Z" fill="#F8F8F8"/>
<path d="M146.109 44.7183C145.413 44.7183 144.859 45.284 144.859 45.9764V63.2849L124.741 45.0384C124.371 44.7034 123.846 44.6215 123.395 44.8225C122.943 45.0235 122.655 45.4776 122.655 45.9764V66.1213C122.655 66.8211 123.217 67.3794 123.905 67.3794C124.593 67.3794 125.155 66.8136 125.155 66.1213V48.8128L145.273 67.0593C145.51 67.2752 145.805 67.3869 146.109 67.3869C146.279 67.3869 146.456 67.3496 146.619 67.2752C147.07 67.0742 147.359 66.6201 147.359 66.1213V45.9764C147.359 45.2766 146.796 44.7183 146.109 44.7183Z" fill="#F8F8F8"/>
<path d="M172.787 57.2697C173.46 57.2697 174 56.7263 174 56.0488C174 55.3713 173.46 54.8279 172.787 54.8279H155.709V47.1898H172.787C173.46 47.1898 174 46.6464 174 45.9689C174 45.2914 173.46 44.748 172.787 44.748H154.496C153.823 44.748 153.283 45.2914 153.283 45.9689V66.1436C153.283 66.821 153.823 67.3645 154.496 67.3645H172.787C173.46 67.3645 174 66.821 174 66.1436C174 65.4661 173.46 64.9227 172.787 64.9227H155.709V57.2548H172.787V57.2697Z" fill="#F8F8F8"/>
<defs>
<linearGradient id="paint0_linear_11116_190" x1="87" y1="90.6148" x2="87" y2="-0.0968488" gradientUnits="userSpaceOnUse">
<stop stop-color="#00AABD"/>
<stop offset="0.24" stop-color="#0089CC"/>
<stop offset="0.59" stop-color="#9263AA"/>
<stop offset="0.86" stop-color="#E64377"/>
<stop offset="1" stop-color="#EF4723"/>
</linearGradient>
<linearGradient id="paint1_linear_11116_190" x1="87" y1="90.6074" x2="87" y2="-0.0968409" gradientUnits="userSpaceOnUse">
<stop stop-color="#00AABD"/>
<stop offset="0.22" stop-color="#38B25C"/>
<stop offset="0.49" stop-color="#F7B618"/>
<stop offset="1" stop-color="#EF4723"/>
</linearGradient>
</defs>
</svg>
